<svg version="1.2" xmlns="http://www.w3.org/2000/svg" viewBox="0 0 50 50" width="50" height="50"><style>.a{fill:#fff}</style><path fill-rule="evenodd" class="a" d="m25 1c0 0 0.4 0.2 0.8 0.4 0.3 0.2 2.3 1.2 4.3 2.3 4.2 2.2 5.7 3 5.8 3.1 0.1 0.1-0.3 0.3-4.6 2.2l-2.9 1.3-1.7-0.9-1.8-0.9-1.6 0.8c-0.8 0.5-1.7 0.9-1.8 0.9-0.2 0-7.1-3.5-7.1-3.7 0 0 2.3-1.3 5.2-2.8 2.9-1.5 5.3-2.7 5.4-2.7zm-14.7 7.7c0.1 0 3.5 1.6 7.4 3.6 5.2 2.7 7 3.7 6.9 3.9-0.1 0.1-0.9 0.4-1.8 0.8-0.9 0.4-2 0.9-2.4 1.1q-0.2 0.1-0.4 0.2-0.3 0.1-0.5 0.2-0.2 0.1-0.4 0.2-0.2 0.1-0.4 0.2l-0.9 0.4-2.1-1.1q-0.4-0.2-0.9-0.5-0.4-0.2-0.9-0.5-0.4-0.2-0.9-0.5-0.4-0.2-0.9-0.5l-1.5-0.8v7.2l-3.2 1.4c-1.8 0.8-3.3 1.4-3.3 1.4-0.1 0-0.1-3.1-0.1-6.8v-6.8l3-1.5c1.6-0.9 3.1-1.6 3.3-1.6zm30 0.3c0.1 0 1.3 0.6 2.8 1.4l2.8 1.4-0.1 4v4.1l-1.9 0.9c-1.1 0.5-4 1.8-6.5 2.9q-1.1 0.5-2.1 1-1.1 0.4-2.2 0.9-1.1 0.5-2.1 1-1.1 0.5-2.2 1c-6.3 2.8-9.3 4.2-13.2 5.9-2 0.9-3.6 1.7-3.6 1.7 0 0.1 0.1 0.2 0.3 0.2 0.1 0.1 0.8 0.5 1.5 0.9 0.7 0.4 1.7 0.9 2.1 1.2 0.5 0.2 0.9 0.5 0.9 0.5 0 0.1-1.7 0.9-3.7 1.8l-3.7 1.7-2.7-1.4-2.7-1.4v-4c0.1-3.3 0.1-4 0.3-4.1 0.2-0.1 1.7-0.8 7-3.2 0.2-0.1 2.6-1.1 5.2-2.3l10.3-4.7c3-1.4 6.8-3 8.2-3.7 1.5-0.7 2.7-1.2 2.7-1.3 0 0-1.1-0.7-2.5-1.5-1.3-0.7-2.4-1.4-2.4-1.4 0-0.1 1.6-0.9 3.7-1.8 2-0.9 3.7-1.7 3.8-1.7zm5.6 15.9c0.1 0 0.1 13.3 0 13.5-0.1 0.1-1.5 0.9-3.2 1.8l-3.1 1.6-7.2-3.7c-3.9-2.1-7.1-3.8-7-3.9 0 0 1.4-0.7 3-1.4 1.5-0.6 3-1.3 3.3-1.4 0.4-0.3 0.5-0.2 2.4 0.8 2.5 1.3 5.1 2.6 5.3 2.7 0 0 0.1-1.6 0.1-3.6v-3.5l1.4-0.6c0.7-0.4 1.8-0.9 2.4-1.1 0.6-0.3 1.3-0.6 1.7-0.8 0.4-0.2 0.8-0.4 0.9-0.4zm-16.6 15.4l3.4 1.7c1.8 1 3.3 1.8 3.4 1.8 0 0-1.5 0.8-3.3 1.6-1.8 0.9-4.3 2.2-5.6 2.8l-2.2 1.1-5.4-2.7c-4.6-2.3-5.8-3-5.1-3 0.1 0 1.6-0.7 3.3-1.4 1.7-0.8 3.2-1.5 3.4-1.6 0.2-0.1 0.8 0.1 2 0.8 2 0.9 1.6 0.9 3.2 0.2q0.2-0.1 0.4-0.2 0.2-0.1 0.4-0.2 0.2 0 0.4-0.1 0.2-0.1 0.4-0.2z"/></svg>